<mxfile host="Electron" agent="Mozilla/5.0 (Macintosh; Intel Mac OS X 10_15_7) AppleWebKit/537.36 (KHTML, like Gecko) draw.io/24.7.5 Chrome/126.0.6478.183 Electron/31.3.0 Safari/537.36" version="24.7.5">
  <diagram name="Página-1" id="-xWKIKyhj2qL0Vbqq9fc">
    <mxGraphModel dx="1621" dy="534" grid="1" gridSize="10" guides="1" tooltips="1" connect="1" arrows="1" fold="1" page="1" pageScale="1" pageWidth="827" pageHeight="1169" math="0" shadow="0">
      <root>
        <mxCell id="0" />
        <mxCell id="1" parent="0" />
        <mxCell id="yA-hH6bRA27yZ34WzHp6-7" style="edgeStyle=orthogonalEdgeStyle;rounded=0;orthogonalLoop=1;jettySize=auto;html=1;exitX=0.5;exitY=1;exitDx=0;exitDy=0;entryX=0.5;entryY=0;entryDx=0;entryDy=0;" edge="1" parent="1" source="yA-hH6bRA27yZ34WzHp6-1" target="yA-hH6bRA27yZ34WzHp6-6">
          <mxGeometry relative="1" as="geometry" />
        </mxCell>
        <mxCell id="yA-hH6bRA27yZ34WzHp6-14" style="edgeStyle=orthogonalEdgeStyle;rounded=0;orthogonalLoop=1;jettySize=auto;html=1;exitX=1;exitY=0.5;exitDx=0;exitDy=0;entryX=0;entryY=0.5;entryDx=0;entryDy=0;endArrow=none;endFill=0;" edge="1" parent="1" source="yA-hH6bRA27yZ34WzHp6-1" target="yA-hH6bRA27yZ34WzHp6-13">
          <mxGeometry relative="1" as="geometry" />
        </mxCell>
        <mxCell id="yA-hH6bRA27yZ34WzHp6-25" style="edgeStyle=orthogonalEdgeStyle;rounded=0;orthogonalLoop=1;jettySize=auto;html=1;exitX=1;exitY=0.75;exitDx=0;exitDy=0;entryX=0.5;entryY=0;entryDx=0;entryDy=0;endArrow=none;endFill=0;" edge="1" parent="1" source="yA-hH6bRA27yZ34WzHp6-1" target="yA-hH6bRA27yZ34WzHp6-22">
          <mxGeometry relative="1" as="geometry" />
        </mxCell>
        <mxCell id="yA-hH6bRA27yZ34WzHp6-1" value="CURSO" style="whiteSpace=wrap;html=1;align=center;" vertex="1" parent="1">
          <mxGeometry x="140" y="80" width="80" height="40" as="geometry" />
        </mxCell>
        <mxCell id="yA-hH6bRA27yZ34WzHp6-18" style="edgeStyle=orthogonalEdgeStyle;rounded=0;orthogonalLoop=1;jettySize=auto;html=1;exitX=0.5;exitY=1;exitDx=0;exitDy=0;entryX=0.5;entryY=0;entryDx=0;entryDy=0;endArrow=none;endFill=0;" edge="1" parent="1" source="yA-hH6bRA27yZ34WzHp6-2" target="yA-hH6bRA27yZ34WzHp6-17">
          <mxGeometry relative="1" as="geometry" />
        </mxCell>
        <mxCell id="yA-hH6bRA27yZ34WzHp6-2" value="EDICION" style="whiteSpace=wrap;html=1;align=center;" vertex="1" parent="1">
          <mxGeometry x="480" y="80" width="100" height="40" as="geometry" />
        </mxCell>
        <mxCell id="yA-hH6bRA27yZ34WzHp6-10" style="edgeStyle=orthogonalEdgeStyle;rounded=0;orthogonalLoop=1;jettySize=auto;html=1;exitX=0.5;exitY=1;exitDx=0;exitDy=0;entryX=0.5;entryY=0;entryDx=0;entryDy=0;endArrow=none;endFill=0;" edge="1" parent="1" source="yA-hH6bRA27yZ34WzHp6-3" target="yA-hH6bRA27yZ34WzHp6-9">
          <mxGeometry relative="1" as="geometry" />
        </mxCell>
        <mxCell id="yA-hH6bRA27yZ34WzHp6-3" value="EMPLEADO" style="whiteSpace=wrap;html=1;align=center;" vertex="1" parent="1">
          <mxGeometry x="130" y="350" width="100" height="40" as="geometry" />
        </mxCell>
        <mxCell id="yA-hH6bRA27yZ34WzHp6-68" style="edgeStyle=orthogonalEdgeStyle;rounded=0;orthogonalLoop=1;jettySize=auto;html=1;exitX=0.5;exitY=1;exitDx=0;exitDy=0;entryX=0.5;entryY=0;entryDx=0;entryDy=0;endArrow=none;endFill=0;" edge="1" parent="1" source="yA-hH6bRA27yZ34WzHp6-4" target="yA-hH6bRA27yZ34WzHp6-65">
          <mxGeometry relative="1" as="geometry" />
        </mxCell>
        <mxCell id="yA-hH6bRA27yZ34WzHp6-4" value="ALUMNO" style="whiteSpace=wrap;html=1;align=center;" vertex="1" parent="1">
          <mxGeometry y="670" width="100" height="40" as="geometry" />
        </mxCell>
        <mxCell id="yA-hH6bRA27yZ34WzHp6-69" style="edgeStyle=orthogonalEdgeStyle;rounded=0;orthogonalLoop=1;jettySize=auto;html=1;exitX=0.5;exitY=1;exitDx=0;exitDy=0;entryX=0.5;entryY=0;entryDx=0;entryDy=0;endArrow=none;endFill=0;" edge="1" parent="1" source="yA-hH6bRA27yZ34WzHp6-5" target="yA-hH6bRA27yZ34WzHp6-67">
          <mxGeometry relative="1" as="geometry" />
        </mxCell>
        <mxCell id="yA-hH6bRA27yZ34WzHp6-5" value="DOCENTE" style="whiteSpace=wrap;html=1;align=center;" vertex="1" parent="1">
          <mxGeometry x="260" y="670" width="100" height="40" as="geometry" />
        </mxCell>
        <mxCell id="yA-hH6bRA27yZ34WzHp6-8" style="edgeStyle=orthogonalEdgeStyle;rounded=0;orthogonalLoop=1;jettySize=auto;html=1;exitX=0.5;exitY=1;exitDx=0;exitDy=0;entryX=0.5;entryY=0;entryDx=0;entryDy=0;endArrow=none;endFill=0;" edge="1" parent="1" source="yA-hH6bRA27yZ34WzHp6-6" target="yA-hH6bRA27yZ34WzHp6-3">
          <mxGeometry relative="1" as="geometry" />
        </mxCell>
        <mxCell id="yA-hH6bRA27yZ34WzHp6-6" value="Asistido por" style="shape=rhombus;perimeter=rhombusPerimeter;whiteSpace=wrap;html=1;align=center;" vertex="1" parent="1">
          <mxGeometry x="140" y="250" width="80" height="40" as="geometry" />
        </mxCell>
        <mxCell id="yA-hH6bRA27yZ34WzHp6-11" style="edgeStyle=orthogonalEdgeStyle;rounded=0;orthogonalLoop=1;jettySize=auto;html=1;exitX=0;exitY=0.5;exitDx=0;exitDy=0;entryX=0.5;entryY=0;entryDx=0;entryDy=0;endArrow=none;endFill=0;" edge="1" parent="1" source="yA-hH6bRA27yZ34WzHp6-9" target="yA-hH6bRA27yZ34WzHp6-4">
          <mxGeometry relative="1" as="geometry" />
        </mxCell>
        <mxCell id="yA-hH6bRA27yZ34WzHp6-12" style="edgeStyle=orthogonalEdgeStyle;rounded=0;orthogonalLoop=1;jettySize=auto;html=1;exitX=1;exitY=0.5;exitDx=0;exitDy=0;entryX=0.5;entryY=0;entryDx=0;entryDy=0;endArrow=none;endFill=0;" edge="1" parent="1" source="yA-hH6bRA27yZ34WzHp6-9" target="yA-hH6bRA27yZ34WzHp6-5">
          <mxGeometry relative="1" as="geometry" />
        </mxCell>
        <mxCell id="yA-hH6bRA27yZ34WzHp6-9" value="Tipo participación" style="shape=hexagon;perimeter=hexagonPerimeter2;whiteSpace=wrap;html=1;fixedSize=1;" vertex="1" parent="1">
          <mxGeometry x="135" y="590" width="90" height="40" as="geometry" />
        </mxCell>
        <mxCell id="yA-hH6bRA27yZ34WzHp6-15" style="edgeStyle=orthogonalEdgeStyle;rounded=0;orthogonalLoop=1;jettySize=auto;html=1;exitX=1;exitY=0.5;exitDx=0;exitDy=0;entryX=0;entryY=0.5;entryDx=0;entryDy=0;endArrow=none;endFill=0;" edge="1" parent="1" source="yA-hH6bRA27yZ34WzHp6-13" target="yA-hH6bRA27yZ34WzHp6-2">
          <mxGeometry relative="1" as="geometry" />
        </mxCell>
        <mxCell id="yA-hH6bRA27yZ34WzHp6-13" value="Posee" style="shape=rhombus;perimeter=rhombusPerimeter;whiteSpace=wrap;html=1;align=center;" vertex="1" parent="1">
          <mxGeometry x="310" y="80" width="90" height="40" as="geometry" />
        </mxCell>
        <mxCell id="yA-hH6bRA27yZ34WzHp6-16" value="HORARIO" style="whiteSpace=wrap;html=1;align=center;" vertex="1" parent="1">
          <mxGeometry x="480" y="310" width="100" height="40" as="geometry" />
        </mxCell>
        <mxCell id="yA-hH6bRA27yZ34WzHp6-19" style="edgeStyle=orthogonalEdgeStyle;rounded=0;orthogonalLoop=1;jettySize=auto;html=1;exitX=0.5;exitY=1;exitDx=0;exitDy=0;entryX=0.5;entryY=0;entryDx=0;entryDy=0;endArrow=none;endFill=0;" edge="1" parent="1" source="yA-hH6bRA27yZ34WzHp6-17" target="yA-hH6bRA27yZ34WzHp6-16">
          <mxGeometry relative="1" as="geometry" />
        </mxCell>
        <mxCell id="yA-hH6bRA27yZ34WzHp6-17" value="Se dicta en" style="shape=rhombus;perimeter=rhombusPerimeter;whiteSpace=wrap;html=1;align=center;" vertex="1" parent="1">
          <mxGeometry x="485" y="200" width="90" height="40" as="geometry" />
        </mxCell>
        <mxCell id="yA-hH6bRA27yZ34WzHp6-26" style="edgeStyle=orthogonalEdgeStyle;rounded=0;orthogonalLoop=1;jettySize=auto;html=1;exitX=0.5;exitY=1;exitDx=0;exitDy=0;entryX=0.75;entryY=1;entryDx=0;entryDy=0;endArrow=none;endFill=0;" edge="1" parent="1" source="yA-hH6bRA27yZ34WzHp6-78" target="yA-hH6bRA27yZ34WzHp6-1">
          <mxGeometry relative="1" as="geometry">
            <Array as="points">
              <mxPoint x="235" y="210" />
              <mxPoint x="200" y="210" />
            </Array>
          </mxGeometry>
        </mxCell>
        <mxCell id="yA-hH6bRA27yZ34WzHp6-22" value="Es requisito de" style="shape=rhombus;perimeter=rhombusPerimeter;whiteSpace=wrap;html=1;align=center;" vertex="1" parent="1">
          <mxGeometry x="240" y="140" width="80" height="40" as="geometry" />
        </mxCell>
        <mxCell id="yA-hH6bRA27yZ34WzHp6-27" value="codigo" style="ellipse;whiteSpace=wrap;html=1;align=center;fontStyle=4;" vertex="1" parent="1">
          <mxGeometry x="40" y="10" width="80" height="40" as="geometry" />
        </mxCell>
        <mxCell id="yA-hH6bRA27yZ34WzHp6-32" style="edgeStyle=orthogonalEdgeStyle;rounded=0;orthogonalLoop=1;jettySize=auto;html=1;exitX=1;exitY=0.5;exitDx=0;exitDy=0;entryX=0;entryY=0.25;entryDx=0;entryDy=0;endArrow=none;endFill=0;" edge="1" parent="1" source="yA-hH6bRA27yZ34WzHp6-28" target="yA-hH6bRA27yZ34WzHp6-1">
          <mxGeometry relative="1" as="geometry" />
        </mxCell>
        <mxCell id="yA-hH6bRA27yZ34WzHp6-28" value="nombre" style="ellipse;whiteSpace=wrap;html=1;align=center;" vertex="1" parent="1">
          <mxGeometry x="40" y="70" width="70" height="40" as="geometry" />
        </mxCell>
        <mxCell id="yA-hH6bRA27yZ34WzHp6-31" style="edgeStyle=orthogonalEdgeStyle;rounded=0;orthogonalLoop=1;jettySize=auto;html=1;exitX=0.5;exitY=1;exitDx=0;exitDy=0;entryX=0.5;entryY=0;entryDx=0;entryDy=0;endArrow=none;endFill=0;" edge="1" parent="1" source="yA-hH6bRA27yZ34WzHp6-29" target="yA-hH6bRA27yZ34WzHp6-1">
          <mxGeometry relative="1" as="geometry" />
        </mxCell>
        <mxCell id="yA-hH6bRA27yZ34WzHp6-29" value="descripcion" style="ellipse;whiteSpace=wrap;html=1;align=center;" vertex="1" parent="1">
          <mxGeometry x="140" width="100" height="40" as="geometry" />
        </mxCell>
        <mxCell id="yA-hH6bRA27yZ34WzHp6-30" style="edgeStyle=orthogonalEdgeStyle;rounded=0;orthogonalLoop=1;jettySize=auto;html=1;exitX=1;exitY=1;exitDx=0;exitDy=0;entryX=0.125;entryY=0;entryDx=0;entryDy=0;entryPerimeter=0;endArrow=none;endFill=0;" edge="1" parent="1" source="yA-hH6bRA27yZ34WzHp6-27" target="yA-hH6bRA27yZ34WzHp6-1">
          <mxGeometry relative="1" as="geometry" />
        </mxCell>
        <mxCell id="yA-hH6bRA27yZ34WzHp6-35" style="edgeStyle=orthogonalEdgeStyle;rounded=0;orthogonalLoop=1;jettySize=auto;html=1;exitX=1;exitY=0.5;exitDx=0;exitDy=0;entryX=0;entryY=0.75;entryDx=0;entryDy=0;endArrow=none;endFill=0;" edge="1" parent="1" source="yA-hH6bRA27yZ34WzHp6-33" target="yA-hH6bRA27yZ34WzHp6-1">
          <mxGeometry relative="1" as="geometry" />
        </mxCell>
        <mxCell id="yA-hH6bRA27yZ34WzHp6-33" value="hrsDuracion" style="ellipse;whiteSpace=wrap;html=1;align=center;" vertex="1" parent="1">
          <mxGeometry y="130" width="100" height="40" as="geometry" />
        </mxCell>
        <mxCell id="yA-hH6bRA27yZ34WzHp6-34" value="costo" style="ellipse;whiteSpace=wrap;html=1;align=center;" vertex="1" parent="1">
          <mxGeometry y="190" width="100" height="40" as="geometry" />
        </mxCell>
        <mxCell id="yA-hH6bRA27yZ34WzHp6-36" style="edgeStyle=orthogonalEdgeStyle;rounded=0;orthogonalLoop=1;jettySize=auto;html=1;exitX=1;exitY=0.5;exitDx=0;exitDy=0;entryX=0.113;entryY=1;entryDx=0;entryDy=0;entryPerimeter=0;endArrow=none;endFill=0;" edge="1" parent="1" source="yA-hH6bRA27yZ34WzHp6-34" target="yA-hH6bRA27yZ34WzHp6-1">
          <mxGeometry relative="1" as="geometry" />
        </mxCell>
        <mxCell id="yA-hH6bRA27yZ34WzHp6-40" style="edgeStyle=orthogonalEdgeStyle;rounded=0;orthogonalLoop=1;jettySize=auto;html=1;exitX=0;exitY=0.5;exitDx=0;exitDy=0;entryX=0.5;entryY=0;entryDx=0;entryDy=0;endArrow=none;endFill=0;" edge="1" parent="1" source="yA-hH6bRA27yZ34WzHp6-37" target="yA-hH6bRA27yZ34WzHp6-2">
          <mxGeometry relative="1" as="geometry" />
        </mxCell>
        <mxCell id="yA-hH6bRA27yZ34WzHp6-37" value="id" style="ellipse;whiteSpace=wrap;html=1;align=center;fontStyle=4;" vertex="1" parent="1">
          <mxGeometry x="600" y="30" width="70" height="40" as="geometry" />
        </mxCell>
        <mxCell id="yA-hH6bRA27yZ34WzHp6-42" style="edgeStyle=orthogonalEdgeStyle;rounded=0;orthogonalLoop=1;jettySize=auto;html=1;exitX=0;exitY=0.5;exitDx=0;exitDy=0;entryX=1;entryY=0.5;entryDx=0;entryDy=0;endArrow=none;endFill=0;" edge="1" parent="1" source="yA-hH6bRA27yZ34WzHp6-38" target="yA-hH6bRA27yZ34WzHp6-2">
          <mxGeometry relative="1" as="geometry" />
        </mxCell>
        <mxCell id="yA-hH6bRA27yZ34WzHp6-38" value="lugar" style="ellipse;whiteSpace=wrap;html=1;align=center;" vertex="1" parent="1">
          <mxGeometry x="640" y="80" width="100" height="40" as="geometry" />
        </mxCell>
        <mxCell id="yA-hH6bRA27yZ34WzHp6-43" style="edgeStyle=orthogonalEdgeStyle;rounded=0;orthogonalLoop=1;jettySize=auto;html=1;exitX=0.5;exitY=0;exitDx=0;exitDy=0;entryX=0.75;entryY=1;entryDx=0;entryDy=0;endArrow=none;endFill=0;" edge="1" parent="1" source="yA-hH6bRA27yZ34WzHp6-39" target="yA-hH6bRA27yZ34WzHp6-2">
          <mxGeometry relative="1" as="geometry">
            <Array as="points">
              <mxPoint x="635" y="140" />
              <mxPoint x="555" y="140" />
            </Array>
          </mxGeometry>
        </mxCell>
        <mxCell id="yA-hH6bRA27yZ34WzHp6-39" value="fecha" style="ellipse;whiteSpace=wrap;html=1;align=center;" vertex="1" parent="1">
          <mxGeometry x="585" y="150" width="100" height="40" as="geometry" />
        </mxCell>
        <mxCell id="yA-hH6bRA27yZ34WzHp6-49" style="edgeStyle=orthogonalEdgeStyle;rounded=0;orthogonalLoop=1;jettySize=auto;html=1;exitX=0.5;exitY=0;exitDx=0;exitDy=0;entryX=0;entryY=0.5;entryDx=0;entryDy=0;endArrow=none;endFill=0;" edge="1" parent="1" source="yA-hH6bRA27yZ34WzHp6-44" target="yA-hH6bRA27yZ34WzHp6-16">
          <mxGeometry relative="1" as="geometry" />
        </mxCell>
        <mxCell id="yA-hH6bRA27yZ34WzHp6-44" value="descripcion" style="ellipse;whiteSpace=wrap;html=1;align=center;" vertex="1" parent="1">
          <mxGeometry x="400" y="370" width="100" height="40" as="geometry" />
        </mxCell>
        <mxCell id="yA-hH6bRA27yZ34WzHp6-48" style="edgeStyle=orthogonalEdgeStyle;rounded=0;orthogonalLoop=1;jettySize=auto;html=1;exitX=0.5;exitY=0;exitDx=0;exitDy=0;entryX=0.5;entryY=1;entryDx=0;entryDy=0;endArrow=none;endFill=0;" edge="1" parent="1" source="yA-hH6bRA27yZ34WzHp6-45" target="yA-hH6bRA27yZ34WzHp6-16">
          <mxGeometry relative="1" as="geometry" />
        </mxCell>
        <mxCell id="yA-hH6bRA27yZ34WzHp6-45" value="turno" style="ellipse;whiteSpace=wrap;html=1;align=center;" vertex="1" parent="1">
          <mxGeometry x="490" y="410" width="100" height="40" as="geometry" />
        </mxCell>
        <mxCell id="yA-hH6bRA27yZ34WzHp6-50" style="edgeStyle=orthogonalEdgeStyle;rounded=0;orthogonalLoop=1;jettySize=auto;html=1;exitX=0.5;exitY=0;exitDx=0;exitDy=0;entryX=1;entryY=0.5;entryDx=0;entryDy=0;endArrow=none;endFill=0;" edge="1" parent="1" source="yA-hH6bRA27yZ34WzHp6-46" target="yA-hH6bRA27yZ34WzHp6-16">
          <mxGeometry relative="1" as="geometry" />
        </mxCell>
        <mxCell id="yA-hH6bRA27yZ34WzHp6-46" value="id" style="ellipse;whiteSpace=wrap;html=1;align=center;fontStyle=4;" vertex="1" parent="1">
          <mxGeometry x="590" y="370" width="50" height="40" as="geometry" />
        </mxCell>
        <mxCell id="yA-hH6bRA27yZ34WzHp6-58" style="edgeStyle=orthogonalEdgeStyle;rounded=0;orthogonalLoop=1;jettySize=auto;html=1;exitX=1;exitY=0.5;exitDx=0;exitDy=0;entryX=0.25;entryY=0;entryDx=0;entryDy=0;endArrow=none;endFill=0;" edge="1" parent="1" source="yA-hH6bRA27yZ34WzHp6-51" target="yA-hH6bRA27yZ34WzHp6-3">
          <mxGeometry relative="1" as="geometry" />
        </mxCell>
        <mxCell id="yA-hH6bRA27yZ34WzHp6-51" value="legajo" style="ellipse;whiteSpace=wrap;html=1;align=center;fontStyle=4;" vertex="1" parent="1">
          <mxGeometry y="310" width="80" height="40" as="geometry" />
        </mxCell>
        <mxCell id="yA-hH6bRA27yZ34WzHp6-59" style="edgeStyle=orthogonalEdgeStyle;rounded=0;orthogonalLoop=1;jettySize=auto;html=1;exitX=1;exitY=0.5;exitDx=0;exitDy=0;entryX=0;entryY=0.25;entryDx=0;entryDy=0;endArrow=none;endFill=0;" edge="1" parent="1" source="yA-hH6bRA27yZ34WzHp6-52" target="yA-hH6bRA27yZ34WzHp6-3">
          <mxGeometry relative="1" as="geometry" />
        </mxCell>
        <mxCell id="yA-hH6bRA27yZ34WzHp6-52" value="nomYApe" style="ellipse;whiteSpace=wrap;html=1;align=center;" vertex="1" parent="1">
          <mxGeometry x="-40" y="370" width="100" height="40" as="geometry" />
        </mxCell>
        <mxCell id="yA-hH6bRA27yZ34WzHp6-60" style="edgeStyle=orthogonalEdgeStyle;rounded=0;orthogonalLoop=1;jettySize=auto;html=1;exitX=1;exitY=0.5;exitDx=0;exitDy=0;entryX=0;entryY=0.75;entryDx=0;entryDy=0;endArrow=none;endFill=0;" edge="1" parent="1" source="yA-hH6bRA27yZ34WzHp6-53" target="yA-hH6bRA27yZ34WzHp6-3">
          <mxGeometry relative="1" as="geometry" />
        </mxCell>
        <mxCell id="yA-hH6bRA27yZ34WzHp6-53" value="direccion" style="ellipse;whiteSpace=wrap;html=1;align=center;" vertex="1" parent="1">
          <mxGeometry x="-20" y="430" width="100" height="40" as="geometry" />
        </mxCell>
        <mxCell id="yA-hH6bRA27yZ34WzHp6-54" value="fechaNac" style="ellipse;whiteSpace=wrap;html=1;align=center;" vertex="1" parent="1">
          <mxGeometry x="50" y="470" width="100" height="40" as="geometry" />
        </mxCell>
        <mxCell id="yA-hH6bRA27yZ34WzHp6-62" style="edgeStyle=orthogonalEdgeStyle;rounded=0;orthogonalLoop=1;jettySize=auto;html=1;exitX=0;exitY=0.5;exitDx=0;exitDy=0;entryX=1;entryY=0.5;entryDx=0;entryDy=0;endArrow=none;endFill=0;" edge="1" parent="1" source="yA-hH6bRA27yZ34WzHp6-55" target="yA-hH6bRA27yZ34WzHp6-3">
          <mxGeometry relative="1" as="geometry" />
        </mxCell>
        <mxCell id="yA-hH6bRA27yZ34WzHp6-55" value="sexo" style="ellipse;whiteSpace=wrap;html=1;align=center;" vertex="1" parent="1">
          <mxGeometry x="260" y="350" width="80" height="40" as="geometry" />
        </mxCell>
        <mxCell id="yA-hH6bRA27yZ34WzHp6-56" value="salario" style="ellipse;whiteSpace=wrap;html=1;align=center;" vertex="1" parent="1">
          <mxGeometry x="230" y="410" width="80" height="40" as="geometry" />
        </mxCell>
        <mxCell id="yA-hH6bRA27yZ34WzHp6-57" value="capacitadoParaDocente" style="ellipse;whiteSpace=wrap;html=1;align=center;" vertex="1" parent="1">
          <mxGeometry x="210" y="470" width="170" height="40" as="geometry" />
        </mxCell>
        <mxCell id="yA-hH6bRA27yZ34WzHp6-61" style="edgeStyle=orthogonalEdgeStyle;rounded=0;orthogonalLoop=1;jettySize=auto;html=1;exitX=1;exitY=0;exitDx=0;exitDy=0;entryX=0.16;entryY=1.05;entryDx=0;entryDy=0;entryPerimeter=0;endArrow=none;endFill=0;" edge="1" parent="1" source="yA-hH6bRA27yZ34WzHp6-54" target="yA-hH6bRA27yZ34WzHp6-3">
          <mxGeometry relative="1" as="geometry" />
        </mxCell>
        <mxCell id="yA-hH6bRA27yZ34WzHp6-63" style="edgeStyle=orthogonalEdgeStyle;rounded=0;orthogonalLoop=1;jettySize=auto;html=1;exitX=0;exitY=0.5;exitDx=0;exitDy=0;entryX=0.88;entryY=1.05;entryDx=0;entryDy=0;entryPerimeter=0;endArrow=none;endFill=0;" edge="1" parent="1" source="yA-hH6bRA27yZ34WzHp6-56" target="yA-hH6bRA27yZ34WzHp6-3">
          <mxGeometry relative="1" as="geometry" />
        </mxCell>
        <mxCell id="yA-hH6bRA27yZ34WzHp6-64" style="edgeStyle=orthogonalEdgeStyle;rounded=0;orthogonalLoop=1;jettySize=auto;html=1;exitX=0;exitY=0.5;exitDx=0;exitDy=0;entryX=0.68;entryY=1.025;entryDx=0;entryDy=0;entryPerimeter=0;endArrow=none;endFill=0;" edge="1" parent="1" source="yA-hH6bRA27yZ34WzHp6-57" target="yA-hH6bRA27yZ34WzHp6-3">
          <mxGeometry relative="1" as="geometry" />
        </mxCell>
        <mxCell id="yA-hH6bRA27yZ34WzHp6-65" value="id" style="ellipse;whiteSpace=wrap;html=1;align=center;fontStyle=4;" vertex="1" parent="1">
          <mxGeometry x="20" y="750" width="60" height="40" as="geometry" />
        </mxCell>
        <mxCell id="yA-hH6bRA27yZ34WzHp6-67" value="id" style="ellipse;whiteSpace=wrap;html=1;align=center;fontStyle=4;" vertex="1" parent="1">
          <mxGeometry x="280" y="750" width="60" height="40" as="geometry" />
        </mxCell>
        <mxCell id="yA-hH6bRA27yZ34WzHp6-70" value="N" style="text;html=1;align=center;verticalAlign=middle;resizable=0;points=[];autosize=1;strokeColor=none;fillColor=none;" vertex="1" parent="1">
          <mxGeometry x="450" y="70" width="30" height="30" as="geometry" />
        </mxCell>
        <mxCell id="yA-hH6bRA27yZ34WzHp6-71" value="1" style="text;html=1;align=center;verticalAlign=middle;resizable=0;points=[];autosize=1;strokeColor=none;fillColor=none;" vertex="1" parent="1">
          <mxGeometry x="220" y="70" width="30" height="30" as="geometry" />
        </mxCell>
        <mxCell id="yA-hH6bRA27yZ34WzHp6-72" value="N" style="text;html=1;align=center;verticalAlign=middle;resizable=0;points=[];autosize=1;strokeColor=none;fillColor=none;" vertex="1" parent="1">
          <mxGeometry x="525" y="280" width="30" height="30" as="geometry" />
        </mxCell>
        <mxCell id="yA-hH6bRA27yZ34WzHp6-73" value="N" style="text;html=1;align=center;verticalAlign=middle;resizable=0;points=[];autosize=1;strokeColor=none;fillColor=none;" vertex="1" parent="1">
          <mxGeometry x="525" y="118" width="30" height="30" as="geometry" />
        </mxCell>
        <mxCell id="yA-hH6bRA27yZ34WzHp6-74" value="N" style="text;html=1;align=center;verticalAlign=middle;resizable=0;points=[];autosize=1;strokeColor=none;fillColor=none;" vertex="1" parent="1">
          <mxGeometry x="175" y="318" width="30" height="30" as="geometry" />
        </mxCell>
        <mxCell id="yA-hH6bRA27yZ34WzHp6-75" value="N" style="text;html=1;align=center;verticalAlign=middle;resizable=0;points=[];autosize=1;strokeColor=none;fillColor=none;" vertex="1" parent="1">
          <mxGeometry x="175" y="118" width="30" height="30" as="geometry" />
        </mxCell>
        <mxCell id="yA-hH6bRA27yZ34WzHp6-76" value="N" style="text;html=1;align=center;verticalAlign=middle;resizable=0;points=[];autosize=1;strokeColor=none;fillColor=none;" vertex="1" parent="1">
          <mxGeometry x="200" y="120" width="30" height="30" as="geometry" />
        </mxCell>
        <mxCell id="yA-hH6bRA27yZ34WzHp6-77" value="N" style="text;html=1;align=center;verticalAlign=middle;resizable=0;points=[];autosize=1;strokeColor=none;fillColor=none;" vertex="1" parent="1">
          <mxGeometry x="220" y="100" width="30" height="30" as="geometry" />
        </mxCell>
        <mxCell id="yA-hH6bRA27yZ34WzHp6-79" value="" style="edgeStyle=orthogonalEdgeStyle;rounded=0;orthogonalLoop=1;jettySize=auto;html=1;exitX=0.5;exitY=1;exitDx=0;exitDy=0;entryX=0.75;entryY=1;entryDx=0;entryDy=0;endArrow=none;endFill=0;" edge="1" parent="1" source="yA-hH6bRA27yZ34WzHp6-22" target="yA-hH6bRA27yZ34WzHp6-78">
          <mxGeometry relative="1" as="geometry">
            <mxPoint x="280" y="180" as="sourcePoint" />
            <mxPoint x="200" y="120" as="targetPoint" />
            <Array as="points">
              <mxPoint x="280" y="210" />
              <mxPoint x="241" y="210" />
            </Array>
          </mxGeometry>
        </mxCell>
        <mxCell id="yA-hH6bRA27yZ34WzHp6-78" value="" style="ellipse;whiteSpace=wrap;html=1;aspect=fixed;" vertex="1" parent="1">
          <mxGeometry x="220" y="190" width="30" height="30" as="geometry" />
        </mxCell>
      </root>
    </mxGraphModel>
  </diagram>
</mxfile>
